<mxfile host="drawio-plugin" modified="2023-05-29T12:36:06.055Z" agent="5.0 (Macintosh; Intel Mac OS X 10_15_7) AppleWebKit/537.36 (KHTML, like Gecko) Chrome/104.0.5112.102 Safari/537.36" version="20.5.3" etag="rjsemk7FhSKnjqEA85oA" type="embed"><diagram id="CLzToKGz1RCCwA_bwuQR" name="Page-1"><mxGraphModel dx="466" dy="599" grid="1" gridSize="10" guides="1" tooltips="1" connect="1" arrows="1" fold="1" page="1" pageScale="1" pageWidth="850" pageHeight="1100" math="0" shadow="0"><root><mxCell id="0"/><mxCell id="1" parent="0"/></root></mxGraphModel></diagram></mxfile>